<svg xmlns="http://www.w3.org/2000/svg" xmlns:xlink="http://www.w3.org/1999/xlink" width="500" zoomAndPan="magnify" viewBox="0 0 375 112.499997" height="150" preserveAspectRatio="xMidYMid meet" version="1.0"><defs><g/><clipPath id="id1"><path d="M 36 13.363281 L 45 13.363281 L 45 20 L 36 20 Z M 36 13.363281 " clip-rule="nonzero"/></clipPath><clipPath id="id2"><path d="M 35 13.363281 L 46 13.363281 L 46 21 L 35 21 Z M 35 13.363281 " clip-rule="nonzero"/></clipPath><clipPath id="id3"><path d="M 99 53 L 125.683594 53 L 125.683594 70 L 99 70 Z M 99 53 " clip-rule="nonzero"/></clipPath><clipPath id="id4"><path d="M 6.214844 60 L 125 60 L 125 82.804688 L 6.214844 82.804688 Z M 6.214844 60 " clip-rule="nonzero"/></clipPath><clipPath id="id5"><path d="M 6.214844 60 L 125.683594 60 L 125.683594 82.804688 L 6.214844 82.804688 Z M 6.214844 60 " clip-rule="nonzero"/></clipPath><clipPath id="id6"><path d="M 87 61 L 100 61 L 100 82.804688 L 87 82.804688 Z M 87 61 " clip-rule="nonzero"/></clipPath><clipPath id="id7"><path d="M 6.214844 66 L 14 66 L 14 82.804688 L 6.214844 82.804688 Z M 6.214844 66 " clip-rule="nonzero"/></clipPath><clipPath id="id8"><path d="M 6.214844 68 L 101 68 L 101 82.804688 L 6.214844 82.804688 Z M 6.214844 68 " clip-rule="nonzero"/></clipPath></defs><g clip-path="url(#id1)"><path fill="#d72323" d="M 36.4375 19.464844 C 36.363281 18.015625 36.191406 17.453125 36.65625 16.472656 C 37.464844 14.769531 39.253906 13.445312 40.011719 13.574219 C 41.203125 13.78125 41.097656 14.558594 42.03125 15.539062 C 42.964844 16.519531 44.464844 18.898438 44.464844 18.898438 Z M 36.4375 19.464844 " fill-opacity="1" fill-rule="nonzero"/></g><g clip-path="url(#id2)"><path stroke-linecap="butt" transform="matrix(0.145015, 0, 0, 0.1447, 4.378614, -18.600886)" fill="none" stroke-linejoin="miter" d="M 221.072543 263.067139 C 220.560743 253.051783 219.375523 249.164422 222.581005 242.388534 C 228.156928 230.618466 240.493994 221.466969 245.719738 222.357822 C 253.93547 223.788588 253.208175 229.160706 259.646077 235.936593 C 266.083978 242.712481 276.427719 259.152782 276.427719 259.152782 Z M 221.072543 263.067139 " stroke="#000000" stroke-width="1" stroke-opacity="1" stroke-miterlimit="4"/></g><path stroke-linecap="butt" transform="matrix(0.145015, 0, 0, 0.1447, 4.378614, -18.600886)" fill-opacity="1" fill="#d72323" fill-rule="nonzero" stroke-linejoin="miter" d="M 57.135025 243.792303 C 57.135025 243.792303 63.572926 318.785992 49.296409 418.075691 C 36.043491 510.022596 29.282347 505.217385 27.154338 536.640226 C 24.999392 568.090063 29.282347 619.51662 29.282347 619.51662 C 29.282347 619.51662 350.719483 626.64345 439.287764 621.64927 C 527.856045 616.65509 740.710838 580.211073 740.710838 580.211073 C 740.710838 580.211073 739.283187 553.080527 710.002858 538.070991 C 680.722529 523.088451 623.562586 518.067275 589.999301 505.946265 C 556.436017 493.79826 455.719228 469.502248 403.569534 403.066155 C 351.41984 336.657058 304.765259 258.504888 282.138326 248.084599 C 261.235349 250.892138 217.139767 253.780664 161.434412 252.349899 C 105.729057 250.919133 57.135025 243.792303 57.135025 243.792303 Z M 57.135025 243.792303 " stroke="#000000" stroke-width="1" stroke-opacity="1" stroke-miterlimit="4"/><path stroke-linecap="butt" transform="matrix(0.145015, 0, 0, 0.1447, 5.000149, -18.497572)" fill-opacity="1" fill="#ffffff" fill-rule="nonzero" stroke-linejoin="miter" d="M 236.423487 407.724283 C 236.423487 447.75871 202.860203 480.207383 161.431365 480.207383 C 120.002528 480.207383 86.439244 447.75871 86.439244 407.724283 C 86.439244 367.689855 120.002528 335.214187 161.431365 335.214187 C 202.860203 335.214187 236.423487 367.689855 236.423487 407.724283 Z M 236.423487 407.724283 " stroke="#d8d8d8" stroke-width="1" stroke-opacity="1" stroke-miterlimit="4"/><path stroke-linecap="butt" transform="matrix(0.0224585, 0, 0, 0.021757, 44.237503, 55.731334)" fill="none" stroke-linejoin="miter" d="M 236.408042 407.694568 C 236.408042 447.73189 202.839194 480.22855 161.443413 480.22855 C 120.047632 480.22855 86.478784 447.73189 86.478784 407.694568 C 86.478784 367.657247 120.047632 335.160586 161.443413 335.160586 C 202.839194 335.160586 236.408042 367.657247 236.408042 407.694568 Z M 236.408042 407.694568 " stroke="#ffffff" stroke-width="48.764999" stroke-opacity="1" stroke-miterlimit="4"/><path stroke-linecap="butt" transform="matrix(0.0224585, 0, 0, 0.021757, 56.066393, 55.556247)" fill="none" stroke-linejoin="miter" d="M 236.373966 407.662642 C 236.373966 447.699963 202.805118 480.196623 161.409336 480.196623 C 120.013555 480.196623 86.444707 447.699963 86.444707 407.662642 C 86.444707 367.62532 120.013555 335.3082 161.409336 335.3082 C 202.805118 335.3082 236.373966 367.62532 236.373966 407.662642 Z M 236.373966 407.662642 " stroke="#ffffff" stroke-width="48.764999" stroke-opacity="1" stroke-miterlimit="4"/><path stroke-linecap="butt" transform="matrix(0.0217001, 0.0129825, -0.0099843, 0.0179196, 46.794116, 14.457199)" fill="none" stroke-linejoin="miter" d="M 236.470116 407.646764 C 236.405259 447.803448 202.87142 480.163688 161.51417 480.262037 C 120.081698 480.196895 86.407831 447.698316 86.412902 407.802933 C 86.477759 367.64625 120.011598 335.28601 161.368848 335.187661 C 202.801321 335.252802 236.475188 367.751382 236.470116 407.646764 Z M 236.470116 407.646764 " stroke="#ffffff" stroke-width="48.766998" stroke-opacity="1" stroke-miterlimit="4"/><path stroke-linecap="butt" transform="matrix(0.0217001, 0.0129825, -0.0099843, 0.0179196, 51.454906, 22.880167)" fill="none" stroke-linejoin="miter" d="M 236.427158 407.616858 C 236.362301 447.773541 202.828462 480.133781 161.471212 480.23213 C 120.03874 480.166988 86.440095 447.831899 86.369944 407.773026 C 86.434801 367.616343 119.96864 335.256103 161.401113 335.321244 C 202.89337 335.125084 236.43223 367.721475 236.427158 407.616858 Z M 236.427158 407.616858 " stroke="#ffffff" stroke-width="48.766998" stroke-opacity="1" stroke-miterlimit="4"/><path stroke-linecap="butt" transform="matrix(0.0217001, 0.0129825, -0.0099843, 0.0179196, 56.6334, 30.52899)" fill="none" stroke-linejoin="miter" d="M 236.401191 407.832171 C 236.396119 447.727554 202.937503 480.251284 161.370023 480.283953 C 119.93755 480.218812 86.473913 447.785912 86.403762 407.727039 C 86.468619 367.570356 120.002458 335.210116 161.43493 335.275257 C 202.79218 335.176908 236.466048 367.675488 236.401191 407.832171 Z M 236.401191 407.832171 " stroke="#ffffff" stroke-width="48.766998" stroke-opacity="1" stroke-miterlimit="4"/><path stroke-linecap="butt" transform="matrix(0.0216189, 0.0133442, -0.0099466, 0.0184174, 63.46797, 37.037583)" fill="none" stroke-linejoin="miter" d="M 236.44116 407.790078 C 236.377792 447.710023 202.914529 480.227379 161.354096 480.222135 C 120.002361 480.277774 86.430657 447.760256 86.420838 407.681242 C 86.41102 367.602229 119.947469 335.243941 161.507902 335.249186 C 202.859637 335.193547 236.431341 367.711065 236.44116 407.790078 Z M 236.44116 407.790078 " stroke="#ffffff" stroke-width="48.766998" stroke-opacity="1" stroke-miterlimit="4"/><path stroke-linecap="butt" transform="matrix(0.0236128, 0.00939535, -0.00659094, 0.0198615, 69.692019, 41.93422)" fill="none" stroke-linejoin="miter" d="M 236.375248 407.767129 C 236.428534 447.666885 202.847983 480.269308 161.465139 480.177741 C 119.984655 480.329036 86.427359 447.821135 86.471712 407.678516 C 86.418426 367.77876 119.998977 335.176336 161.381821 335.267904 C 202.862305 335.116609 236.419601 367.62451 236.375248 407.767129 Z M 236.375248 407.767129 " stroke="#ffffff" stroke-width="48.766998" stroke-opacity="1" stroke-miterlimit="4"/><path stroke-linecap="butt" transform="matrix(0.023069, 0.00763436, -0.00643868, 0.0161384, 78.376982, 47.178136)" fill="none" stroke-linejoin="miter" d="M 236.460458 407.671093 C 236.494649 447.834819 202.858684 480.205771 161.377855 480.222696 C 120.046605 480.168861 86.42212 447.665627 86.447606 407.715717 C 86.473092 367.765808 120.04938 335.18104 161.38063 335.234874 C 202.861459 335.217949 236.485944 367.721184 236.460458 407.671093 Z M 236.460458 407.671093 " stroke="#ffffff" stroke-width="48.766998" stroke-opacity="1" stroke-miterlimit="4"/><path stroke-linecap="butt" transform="matrix(0.023069, 0.00763436, -0.00643868, 0.0161384, 87.077896, 49.4832)" fill="none" stroke-linejoin="miter" d="M 236.389783 407.681203 C 236.423974 447.844929 202.788009 480.21588 161.456759 480.162046 C 119.97593 480.178971 86.411122 447.889553 86.376931 407.725827 C 86.402417 367.775917 119.978704 335.191149 161.459534 335.174224 C 202.790784 335.228059 236.415269 367.731293 236.389783 407.681203 Z M 236.389783 407.681203 " stroke="#ffffff" stroke-width="48.766998" stroke-opacity="1" stroke-miterlimit="4"/><path stroke-linecap="butt" transform="matrix(0.0240479, 0.0032051, -0.00353257, 0.0154858, 94.725999, 52.435076)" fill="none" stroke-linejoin="miter" d="M 236.493359 407.777993 C 236.342423 447.664398 202.806601 480.334613 161.384827 480.331277 C 119.963052 480.327942 86.41424 447.668644 86.407533 407.814867 C 86.364865 367.716285 120.094291 335.258246 161.516065 335.261582 C 202.93784 335.264918 236.45069 367.67941 236.493359 407.777993 Z M 236.493359 407.777993 " stroke="#ffffff" stroke-width="48.766998" stroke-opacity="1" stroke-miterlimit="4"/><path fill="#ffffff" d="M 121.332031 61.871094 C 120.398438 60.113281 119.105469 58.726562 117.285156 58.277344 C 113.511719 57.351562 106.253906 57.992188 104.027344 58.25 C 101.796875 58.511719 108.660156 63.859375 111.378906 65.410156 C 113.28125 64.625 120.15625 63.421875 121.332031 61.871094 Z M 121.332031 61.871094 " fill-opacity="1" fill-rule="nonzero"/><g clip-path="url(#id3)"><path stroke-linecap="butt" transform="matrix(0.145015, 0, 0, 0.1447, 4.378614, -18.600886)" fill="none" stroke-linejoin="miter" d="M 806.490566 556.131026 C 800.052664 543.983021 791.136575 534.399594 778.584015 531.295104 C 752.563042 524.897154 702.51442 529.324427 687.16043 531.106135 C 671.779503 532.914838 719.107505 569.871771 737.855535 580.589011 C 750.973769 575.162902 798.382581 566.848267 806.490566 556.131026 Z M 806.490566 556.131026 " stroke="#000000" stroke-width="5" stroke-opacity="1" stroke-miterlimit="4"/></g><g clip-path="url(#id4)"><path fill="#ffffff" d="M 7.4375 68.597656 C 7.4375 68.597656 36.636719 69.765625 57.386719 69.472656 C 77.957031 69.183594 110.4375 65.859375 121.425781 60.707031 C 121.761719 61.695312 122.960938 62.632812 123.375 63.78125 C 123.867188 65.140625 125.253906 70.605469 124.421875 72.671875 C 123.59375 74.738281 110.03125 78.082031 99.675781 79.734375 C 89.316406 81.390625 75.421875 81.402344 64.445312 81.402344 C 53.464844 81.402344 29.640625 82.691406 20.527344 82.398438 C 11.394531 82.105469 8.644531 81.339844 6.878906 79.917969 C 6.601562 77.355469 7.4375 68.597656 7.4375 68.597656 Z M 7.4375 68.597656 " fill-opacity="1" fill-rule="nonzero"/></g><g clip-path="url(#id5)"><path stroke-linecap="butt" transform="matrix(0.145015, 0, 0, 0.1447, 4.378614, -18.600886)" fill="none" stroke-linejoin="round" d="M 21.093553 602.617395 C 21.093553 602.617395 222.446321 610.689069 365.534737 608.664402 C 507.384058 606.66673 731.36376 583.693501 807.137049 548.086347 C 809.453616 554.916226 817.723222 561.395162 820.578525 569.331859 C 823.972565 578.726317 833.535138 616.493117 827.797594 630.773772 C 822.086987 645.054428 728.56233 668.162634 657.152807 679.581759 C 585.716346 691.02788 489.902059 691.108867 414.20958 691.108867 C 338.490164 691.108867 174.202467 700.017404 111.358854 697.992737 C 48.380556 695.968069 29.417032 690.676938 17.241587 680.850551 C 15.329072 663.141458 21.093553 602.617395 21.093553 602.617395 Z M 21.093553 602.617395 " stroke="#000000" stroke-width="5" stroke-opacity="1" stroke-miterlimit="4"/></g><g clip-path="url(#id6)"><path stroke-linecap="butt" transform="matrix(0.145015, 0, 0, 0.1447, 4.378614, -18.600886)" fill="none" stroke-linejoin="miter" d="M 605.70347 590.577371 C 613.218845 620.947385 621.784755 662.007644 623.912764 684.872891 " stroke="#000000" stroke-width="6" stroke-opacity="1" stroke-miterlimit="4"/></g><g clip-path="url(#id7)"><path stroke-linecap="butt" transform="matrix(0.145015, 0, 0, 0.1447, 4.378614, -18.600886)" fill="none" stroke-linejoin="miter" d="M 20.716437 614.52244 L 35.37007 617.006032 L 34.642776 689.165186 " stroke="#000000" stroke-width="5" stroke-opacity="1" stroke-miterlimit="4"/></g><g clip-path="url(#id8)"><path stroke-linecap="butt" transform="matrix(0.145015, 0, 0, 0.1447, 4.378614, -18.600886)" fill="none" stroke-linejoin="miter" d="M 34.642776 660.576879 C 34.642776 660.576879 51.020365 667.001825 77.28377 667.487745 C 103.547175 668.000661 235.375997 664.491237 275.754298 664.464241 C 311.634149 664.437246 440.419111 662.574551 488.905396 660.414906 C 541.432205 658.093287 619.225757 649.319727 619.225757 649.319727 " stroke="#000000" stroke-width="8" stroke-opacity="1" stroke-miterlimit="4"/></g><path stroke-linecap="round" transform="matrix(0.145015, 0, 0, 0.1447, 4.378614, -18.600886)" fill="none" stroke-linejoin="miter" d="M 234.352398 256.075287 C 269.989818 313.440869 277.69375 364.78644 328.739033 422.179017 C 379.784317 479.5446 421.186218 514.773816 491.491331 532.887842 C 561.796445 551.028864 714.932297 570.141726 714.932297 570.141726 " stroke="#ffffff" stroke-width="4.874" stroke-opacity="1" stroke-miterlimit="4"/><path stroke-linecap="butt" transform="matrix(0.145015, 0, 0, 0.1447, 4.378614, -18.600886)" fill-opacity="1" fill="#ffffff" fill-rule="nonzero" stroke-linejoin="round" d="M 285.720924 289.063871 C 287.417944 294.139038 288.522353 295.029892 290.300184 298.0264 C 312.954054 296.86559 315.6208 288.011044 330.570738 287.957053 C 329.78957 283.151842 322.597437 271.435765 316.536652 268.35827 C 300.051315 272.407606 296.872769 275.944025 285.720924 289.063871 Z M 285.720924 289.063871 " stroke="#000000" stroke-width="3" stroke-opacity="1" stroke-miterlimit="4"/><path stroke-linecap="butt" transform="matrix(0.145015, 0, 0, 0.1447, 4.378614, -18.600886)" fill-opacity="1" fill="#ffffff" fill-rule="nonzero" stroke-linejoin="round" d="M 317.156199 346.888378 C 318.853219 351.963545 320.954291 352.773412 322.732121 355.742924 C 345.385991 354.609111 348.160484 346.915374 363.083486 346.834387 C 362.302318 342.029176 355.110185 330.313099 349.0494 327.235604 C 332.564063 331.311935 328.308044 333.768532 317.156199 346.888378 Z M 317.156199 346.888378 " stroke="#000000" stroke-width="3" stroke-opacity="1" stroke-miterlimit="4"/><path stroke-linecap="butt" transform="matrix(0.145015, 0, 0, 0.1447, 4.378614, -18.600886)" fill-opacity="1" fill="#ffffff" fill-rule="nonzero" stroke-linejoin="round" d="M 355.864416 398.611887 C 357.561436 403.687053 356.888016 405.65773 358.665846 408.627242 C 377.225319 394.103627 386.329966 393.455733 398.397663 384.466209 C 397.616496 379.660998 391.124721 370.806451 385.090872 367.728957 C 368.605535 371.778292 367.016262 385.49204 355.864416 398.611887 Z M 355.864416 398.611887 " stroke="#000000" stroke-width="3" stroke-opacity="1" stroke-miterlimit="4"/><path stroke-linecap="butt" transform="matrix(0.145015, 0, 0, 0.1447, 4.378614, -18.600886)" fill-opacity="1" fill="#ffffff" fill-rule="nonzero" stroke-linejoin="round" d="M 400.310178 446.340051 C 402.007198 451.442213 403.111608 452.333067 404.916375 455.30258 C 421.617207 451.631182 432.769052 436.702633 440.553795 432.167378 C 439.772627 427.362167 433.092294 422.52996 427.031509 419.452465 C 410.546172 423.5018 399.986936 438.511336 400.310178 446.340051 Z M 400.310178 446.340051 " stroke="#000000" stroke-width="3" stroke-opacity="1" stroke-miterlimit="4"/><path stroke-linecap="butt" transform="matrix(0.145015, 0, 0, 0.1447, 4.378614, -18.600886)" fill-opacity="1" fill="#ffffff" fill-rule="nonzero" stroke-linejoin="round" d="M 453.483471 481.110343 C 455.180491 486.212505 457.416248 486.67143 462.372623 487.751252 C 477.969045 478.680741 477.995982 467.828523 480.959033 459.081959 C 480.177865 454.276748 468.67584 451.847147 462.615055 448.769652 C 457.389311 461.241604 458.143542 472.120818 453.483471 481.110343 Z M 453.483471 481.110343 " stroke="#000000" stroke-width="3" stroke-opacity="1" stroke-miterlimit="4"/><path stroke-linecap="butt" transform="matrix(0.145015, 0, 0, 0.1447, 4.378614, -18.600886)" fill-opacity="1" fill="#ffffff" fill-rule="nonzero" stroke-linejoin="round" d="M 511.828634 506.540168 C 515.545916 508.726809 519.963556 509.779636 524.839121 509.9956 C 529.095139 497.280688 530.441981 486.806407 530.253423 477.573923 C 527.856045 473.335619 516.354021 469.826195 509.592878 468.989333 C 513.98358 479.328635 513.148539 496.524812 511.828634 506.540168 Z M 511.828634 506.540168 " stroke="#000000" stroke-width="3" stroke-opacity="1" stroke-miterlimit="4"/><path stroke-linecap="butt" transform="matrix(0.145015, 0, 0, 0.1447, 4.378614, -18.600886)" fill-opacity="1" fill="#ffffff" fill-rule="nonzero" stroke-linejoin="round" d="M 572.921354 522.899482 C 576.934941 526.462897 579.359255 527.272764 584.180947 525.734017 C 590.780469 516.015612 587.251745 504.569491 583.426716 499.305356 C 580.355918 495.552972 573.217659 493.771264 566.429579 494.122206 C 567.129937 503.732629 569.581188 512.668162 572.921354 522.899482 Z M 572.921354 522.899482 " stroke="#000000" stroke-width="3" stroke-opacity="1" stroke-miterlimit="4"/><path stroke-linecap="butt" transform="matrix(0.145015, 0, 0, 0.1447, 4.378614, -18.600886)" fill-opacity="1" fill="#ffffff" fill-rule="nonzero" stroke-linejoin="round" d="M 634.498937 536.721213 C 638.512524 540.284628 640.694406 539.582743 645.489161 538.043996 C 651.469136 530.728197 650.580221 526.111955 648.04816 519.066111 C 644.950425 515.286732 632.77498 512.506188 625.9869 512.857131 C 627.17212 518.445213 634.041011 526.62487 634.498937 536.721213 Z M 634.498937 536.721213 " stroke="#000000" stroke-width="3" stroke-opacity="1" stroke-miterlimit="4"/><g fill="#d72323" fill-opacity="1"><g transform="translate(83.402158, 72.53238)"><g><path d="M 7.46875 -31.890625 C 11.257812 -35.484375 15.925781 -37.28125 21.46875 -37.28125 C 27.019531 -37.28125 31.6875 -35.484375 35.46875 -31.890625 C 39.257812 -28.304688 41.15625 -23.863281 41.15625 -18.5625 C 41.15625 -13.257812 39.257812 -8.796875 35.46875 -5.171875 C 31.6875 -1.546875 27.019531 0.265625 21.46875 0.265625 C 15.925781 0.265625 11.257812 -1.546875 7.46875 -5.171875 C 3.6875 -8.796875 1.796875 -13.257812 1.796875 -18.5625 C 1.796875 -23.863281 3.6875 -28.304688 7.46875 -31.890625 Z M 21.53125 -31.65625 C 17.851562 -31.65625 14.707031 -30.390625 12.09375 -27.859375 C 9.476562 -25.335938 8.171875 -22.238281 8.171875 -18.5625 C 8.171875 -14.882812 9.484375 -11.765625 12.109375 -9.203125 C 14.742188 -6.640625 17.882812 -5.359375 21.53125 -5.359375 C 25.175781 -5.359375 28.285156 -6.640625 30.859375 -9.203125 C 33.441406 -11.765625 34.734375 -14.882812 34.734375 -18.5625 C 34.734375 -22.238281 33.441406 -25.335938 30.859375 -27.859375 C 28.285156 -30.390625 25.175781 -31.65625 21.53125 -31.65625 Z M 21.53125 -31.65625 "/></g></g></g><g fill="#d72323" fill-opacity="1"><g transform="translate(126.352783, 72.53238)"><g><path d="M 36.4375 -37.125 L 36.4375 -15.375 C 36.4375 -10.53125 35.003906 -6.710938 32.140625 -3.921875 C 29.273438 -1.128906 25.332031 0.265625 20.3125 0.265625 C 15.289062 0.265625 11.335938 -1.128906 8.453125 -3.921875 C 5.578125 -6.710938 4.140625 -10.53125 4.140625 -15.375 L 4.140625 -37.125 L 10.390625 -37.125 L 10.390625 -15.375 C 10.390625 -12.269531 11.28125 -9.820312 13.0625 -8.03125 C 14.851562 -6.25 17.285156 -5.359375 20.359375 -5.359375 C 23.398438 -5.359375 25.796875 -6.238281 27.546875 -8 C 29.296875 -9.769531 30.171875 -12.226562 30.171875 -15.375 L 30.171875 -37.125 Z M 36.4375 -37.125 "/></g></g></g><g fill="#d72323" fill-opacity="1"><g transform="translate(166.864236, 72.53238)"><g><path d="M 30.234375 -31.5 L 18.453125 -31.5 L 18.453125 0 L 12.203125 0 L 12.203125 -31.5 L 0.484375 -31.5 L 0.484375 -37.125 L 30.234375 -37.125 Z M 30.234375 -31.5 "/></g></g></g><g fill="#ffffff" fill-opacity="1"><g transform="translate(199.773333, 71.810459)"><g><path d="M 17.203125 -39.703125 C 19.316406 -39.703125 21.378906 -39.394531 23.390625 -38.78125 C 25.410156 -38.164062 26.910156 -37.5625 27.890625 -36.96875 L 29.296875 -36.015625 L 25.71875 -28.921875 C 25.425781 -29.109375 25.03125 -29.351562 24.53125 -29.65625 C 24.03125 -29.957031 23.082031 -30.359375 21.6875 -30.859375 C 20.300781 -31.367188 19.007812 -31.625 17.8125 -31.625 C 16.332031 -31.625 15.191406 -31.304688 14.390625 -30.671875 C 13.585938 -30.046875 13.1875 -29.195312 13.1875 -28.125 C 13.1875 -27.582031 13.375 -27.082031 13.75 -26.625 C 14.132812 -26.175781 14.78125 -25.691406 15.6875 -25.171875 C 16.601562 -24.648438 17.40625 -24.226562 18.09375 -23.90625 C 18.789062 -23.59375 19.863281 -23.125 21.3125 -22.5 C 23.832031 -21.425781 25.984375 -19.96875 27.765625 -18.125 C 29.546875 -16.28125 30.4375 -14.191406 30.4375 -11.859375 C 30.4375 -9.617188 30.035156 -7.664062 29.234375 -6 C 28.429688 -4.332031 27.328125 -3.023438 25.921875 -2.078125 C 24.523438 -1.128906 22.972656 -0.429688 21.265625 0.015625 C 19.566406 0.472656 17.722656 0.703125 15.734375 0.703125 C 14.035156 0.703125 12.363281 0.53125 10.71875 0.1875 C 9.082031 -0.15625 7.710938 -0.585938 6.609375 -1.109375 C 5.515625 -1.628906 4.523438 -2.140625 3.640625 -2.640625 C 2.753906 -3.148438 2.109375 -3.578125 1.703125 -3.921875 L 1.09375 -4.4375 L 5.53125 -11.90625 C 5.90625 -11.59375 6.421875 -11.191406 7.078125 -10.703125 C 7.742188 -10.210938 8.921875 -9.554688 10.609375 -8.734375 C 12.296875 -7.921875 13.785156 -7.515625 15.078125 -7.515625 C 18.828125 -7.515625 20.703125 -8.789062 20.703125 -11.34375 C 20.703125 -11.875 20.566406 -12.367188 20.296875 -12.828125 C 20.035156 -13.285156 19.5625 -13.742188 18.875 -14.203125 C 18.195312 -14.660156 17.597656 -15.019531 17.078125 -15.28125 C 16.566406 -15.550781 15.71875 -15.960938 14.53125 -16.515625 C 13.351562 -17.066406 12.476562 -17.484375 11.90625 -17.765625 C 9.539062 -18.929688 7.710938 -20.390625 6.421875 -22.140625 C 5.128906 -23.890625 4.484375 -25.773438 4.484375 -27.796875 C 4.484375 -31.285156 5.773438 -34.140625 8.359375 -36.359375 C 10.941406 -38.585938 13.890625 -39.703125 17.203125 -39.703125 Z M 17.203125 -39.703125 "/></g></g></g><g fill="#ffffff" fill-opacity="1"><g transform="translate(231.533758, 71.810459)"><g><path d="M 11.71875 -15.640625 L 11.71875 0 L 2.828125 0 L 2.828125 -39 L 11.71875 -39 L 11.71875 -23.4375 L 24.296875 -23.4375 L 24.296875 -39 L 33.1875 -39 L 33.1875 0 L 24.296875 0 L 24.296875 -15.640625 Z M 11.71875 -15.640625 "/></g></g></g><g fill="#ffffff" fill-opacity="1"><g transform="translate(267.547814, 71.810459)"><g><path d="M 1.09375 -19.515625 C 1.09375 -25.160156 3.015625 -29.9375 6.859375 -33.84375 C 10.703125 -37.75 15.332031 -39.703125 20.75 -39.703125 C 26.195312 -39.703125 30.828125 -37.753906 34.640625 -33.859375 C 38.453125 -29.972656 40.359375 -25.191406 40.359375 -19.515625 C 40.359375 -13.816406 38.484375 -9.019531 34.734375 -5.125 C 30.984375 -1.238281 26.320312 0.703125 20.75 0.703125 C 15.039062 0.703125 10.335938 -1.222656 6.640625 -5.078125 C 2.941406 -8.941406 1.09375 -13.753906 1.09375 -19.515625 Z M 10.6875 -19.515625 C 10.6875 -17.472656 11 -15.609375 11.625 -13.921875 C 12.257812 -12.234375 13.363281 -10.804688 14.9375 -9.640625 C 16.507812 -8.472656 18.445312 -7.890625 20.75 -7.890625 C 24.0625 -7.890625 26.554688 -9.023438 28.234375 -11.296875 C 29.921875 -13.566406 30.765625 -16.304688 30.765625 -19.515625 C 30.765625 -22.703125 29.90625 -25.4375 28.1875 -27.71875 C 26.476562 -30 24 -31.140625 20.75 -31.140625 C 17.53125 -31.140625 15.046875 -30 13.296875 -27.71875 C 11.554688 -25.4375 10.6875 -22.703125 10.6875 -19.515625 Z M 10.6875 -19.515625 "/></g></g></g><g fill="#ffffff" fill-opacity="1"><g transform="translate(308.997062, 71.810459)"><g><path d="M 25.140625 -39 L 25.140625 -31.1875 L 11.71875 -31.1875 L 11.71875 -23.4375 L 24.578125 -23.4375 L 24.578125 -15.640625 L 11.71875 -15.640625 L 11.71875 -7.796875 L 25.140625 -7.796875 L 25.140625 0 L 2.828125 0 L 2.828125 -39 Z M 25.140625 -39 "/></g></g></g><g fill="#ffffff" fill-opacity="1"><g transform="translate(336.409335, 71.810459)"><g><path d="M 17.203125 -39.703125 C 19.316406 -39.703125 21.378906 -39.394531 23.390625 -38.78125 C 25.410156 -38.164062 26.910156 -37.5625 27.890625 -36.96875 L 29.296875 -36.015625 L 25.71875 -28.921875 C 25.425781 -29.109375 25.03125 -29.351562 24.53125 -29.65625 C 24.03125 -29.957031 23.082031 -30.359375 21.6875 -30.859375 C 20.300781 -31.367188 19.007812 -31.625 17.8125 -31.625 C 16.332031 -31.625 15.191406 -31.304688 14.390625 -30.671875 C 13.585938 -30.046875 13.1875 -29.195312 13.1875 -28.125 C 13.1875 -27.582031 13.375 -27.082031 13.75 -26.625 C 14.132812 -26.175781 14.78125 -25.691406 15.6875 -25.171875 C 16.601562 -24.648438 17.40625 -24.226562 18.09375 -23.90625 C 18.789062 -23.59375 19.863281 -23.125 21.3125 -22.5 C 23.832031 -21.425781 25.984375 -19.96875 27.765625 -18.125 C 29.546875 -16.28125 30.4375 -14.191406 30.4375 -11.859375 C 30.4375 -9.617188 30.035156 -7.664062 29.234375 -6 C 28.429688 -4.332031 27.328125 -3.023438 25.921875 -2.078125 C 24.523438 -1.128906 22.972656 -0.429688 21.265625 0.015625 C 19.566406 0.472656 17.722656 0.703125 15.734375 0.703125 C 14.035156 0.703125 12.363281 0.53125 10.71875 0.1875 C 9.082031 -0.15625 7.710938 -0.585938 6.609375 -1.109375 C 5.515625 -1.628906 4.523438 -2.140625 3.640625 -2.640625 C 2.753906 -3.148438 2.109375 -3.578125 1.703125 -3.921875 L 1.09375 -4.4375 L 5.53125 -11.90625 C 5.90625 -11.59375 6.421875 -11.191406 7.078125 -10.703125 C 7.742188 -10.210938 8.921875 -9.554688 10.609375 -8.734375 C 12.296875 -7.921875 13.785156 -7.515625 15.078125 -7.515625 C 18.828125 -7.515625 20.703125 -8.789062 20.703125 -11.34375 C 20.703125 -11.875 20.566406 -12.367188 20.296875 -12.828125 C 20.035156 -13.285156 19.5625 -13.742188 18.875 -14.203125 C 18.195312 -14.660156 17.597656 -15.019531 17.078125 -15.28125 C 16.566406 -15.550781 15.71875 -15.960938 14.53125 -16.515625 C 13.351562 -17.066406 12.476562 -17.484375 11.90625 -17.765625 C 9.539062 -18.929688 7.710938 -20.390625 6.421875 -22.140625 C 5.128906 -23.890625 4.484375 -25.773438 4.484375 -27.796875 C 4.484375 -31.285156 5.773438 -34.140625 8.359375 -36.359375 C 10.941406 -38.585938 13.890625 -39.703125 17.203125 -39.703125 Z M 17.203125 -39.703125 "/></g></g></g></svg>